<svg xmlns="http://www.w3.org/2000/svg" viewBox="0 0 512 512">
  <!-- Full bleed background for maskable safe zone -->
  <rect width="512" height="512" fill="#141210"/>
  <!-- Content within 80% safe zone (51px inset each side) -->
  <rect x="106" y="128" width="300" height="22" rx="5" fill="#665a48" stroke="#8a7e65" stroke-width="1.5"/>
  <rect x="120" y="154" width="22" height="196" rx="3" fill="#3d3527" stroke="#4a4030" stroke-width="1"/>
  <rect x="152" y="154" width="22" height="196" rx="3" fill="#4a3f30" stroke="#5a4e3a" stroke-width="1"/>
  <rect x="184" y="154" width="22" height="196" rx="3" fill="#554a38" stroke="#6a5e48" stroke-width="1"/>
  <rect x="216" y="154" width="22" height="196" rx="3" fill="#5e5240" stroke="#7a6e55" stroke-width="1"/>
  <rect x="248" y="154" width="22" height="196" rx="3" fill="#4a3f30" stroke="#5a4e3a" stroke-width="1"/>
  <rect x="280" y="154" width="22" height="196" rx="3" fill="#3d3527" stroke="#4a4030" stroke-width="1"/>
  <rect x="312" y="154" width="22" height="196" rx="3" fill="#4a3f30" stroke="#5a4e3a" stroke-width="1"/>
  <rect x="344" y="154" width="22" height="196" rx="3" fill="#5e5240" stroke="#7a6e55" stroke-width="1"/>
  <rect x="376" y="154" width="22" height="196" rx="3" fill="#554a38" stroke="#6a5e48" stroke-width="1"/>
  <defs>
    <linearGradient id="led" x1="0" y1="1" x2="0" y2="0">
      <stop offset="0%" stop-color="#ffcc66" stop-opacity="0.9"/>
      <stop offset="30%" stop-color="#ffcc66" stop-opacity="0.3"/>
      <stop offset="100%" stop-color="#ffcc66" stop-opacity="0"/>
    </linearGradient>
  </defs>
  <rect x="120" y="170" width="278" height="180" fill="url(#led)" opacity="0.25"/>
  <rect x="120" y="350" width="278" height="4" rx="2" fill="#ffcc66" opacity="0.9"/>
  <text x="256" y="400" fill="#c9a96e" font-family="sans-serif" font-size="36" font-weight="700" text-anchor="middle" letter-spacing="5">BAR</text>
</svg>
